<?xml version="1.0" encoding="UTF-8"?>
<svg id="_Шар_2" data-name="Шар 2" xmlns="http://www.w3.org/2000/svg" viewBox="0 0 17.94 17.54">
  <defs>
    <style>
      .cls-1 {
        fill: #e62634;
      }

      .cls-2 {
        fill: #e52722;
      }
    </style>
  </defs>
  <g id="Layer_1" data-name="Layer 1">
    <g>
      <path class="cls-2" d="M17.94,17.54H0V0h17.94v17.54ZM1.24,16.14h15.46V1.4H1.24v14.74Z"/>
      <path class="cls-1" d="M8.01,7.05c.46-.54-.04-1.24-.35-1.73-.18-.28-.43-.67-.8-.73-.34-.04-.66.35-.88.56-.55.5-.85,1.14-.88,1.88,0,.08,0,.22,0,.1.05.44.1.86.26,1.28.14.4.34.76.57,1.11.49.74,1.06,1.46,1.73,2.05.65.58,1.39,1.1,2.27,1.29.82.17,1.62,0,2.27-.54.23-.19.66-.47.68-.8.02-.33-.25-.6-.48-.8-.49-.44-1.2-1.16-1.87-.63-.26.21-.53.6-.88.66-.34.06-.67-.19-.92-.39-.55-.45-1.1-1.07-1.42-1.71-.14-.29-.26-.65-.06-.94.21-.28.55-.41.77-.67Z"/>
    </g>
  </g>
</svg>