<?xml version="1.0" encoding="UTF-8"?>
<svg id="_Шар_2" data-name="Шар 2" xmlns="http://www.w3.org/2000/svg" viewBox="0 0 175.27 231.27">
  <defs>
    <style>
      .cls-1 {
        fill: #e62634;
      }
    </style>
  </defs>
  <g id="Layer_1" data-name="Layer 1">
    <g>
      <polygon class="cls-1" points="170.56 226.41 170.32 226.82 170.09 226.41 170.56 226.41"/>
      <polygon class="cls-1" points="175.27 218.04 175.26 218.07 175.24 218.04 175.27 218.04"/>
      <polygon class="cls-1" points="170.32 220.61 170.56 221.02 170.09 221.02 170.32 220.61"/>
      <polygon class="cls-1" points="161.09 226.18 160.46 227.27 159.83 226.18 161.09 226.18"/>
      <polygon class="cls-1" points="175.26 212.38 175.26 212.39 175.25 212.39 175.26 212.38"/>
      <polygon class="cls-1" points="165.83 217.8 165.39 218.55 164.96 217.8 165.83 217.8"/>
      <polygon class="cls-1" points="160.46 220.12 161.12 221.26 159.8 221.26 160.46 220.12"/>
      <polygon class="cls-1" points="151.81 225.85 150.6 227.93 149.39 225.85 151.81 225.85"/>
      <polygon class="cls-1" points="170.54 209.43 170.32 209.8 170.11 209.43 170.54 209.43"/>
      <polygon class="cls-1" points="165.39 211.88 165.83 212.64 164.96 212.64 165.39 211.88"/>
      <polygon class="cls-1" points="156.41 217.55 155.53 219.05 154.66 217.55 156.41 217.55"/>
      <polygon class="cls-1" points="150.6 219.49 151.81 221.57 149.39 221.57 150.6 219.49"/>
      <polygon class="cls-1" points="142.38 225.6 140.74 228.43 139.1 225.6 142.38 225.6"/>
      <polygon class="cls-1" points="175.26 201.06 175.26 201.06 175.25 201.06 175.26 201.06"/>
      <polygon class="cls-1" points="170.32 203.64 170.54 204.01 170.11 204.01 170.32 203.64"/>
      <polygon class="cls-1" points="161.09 209.19 160.46 210.28 159.83 209.19 161.09 209.19"/>
      <polygon class="cls-1" points="155.53 211.38 156.41 212.89 154.66 212.89 155.53 211.38"/>
      <polygon class="cls-1" points="147.13 217.21 145.67 219.72 144.22 217.21 147.13 217.21"/>
      <polygon class="cls-1" points="140.74 218.95 142.42 221.84 139.06 221.84 140.74 218.95"/>
      <polygon class="cls-1" points="133.06 225.29 130.88 229.05 128.69 225.29 133.06 225.29"/>
      <polygon class="cls-1" points="125.95 226.68 128.3 230.72 123.6 230.72 125.95 226.68"/>
      <polygon class="cls-1" points="165.8 200.82 165.39 201.53 164.98 200.82 165.8 200.82"/>
      <polygon class="cls-1" points="160.46 203.16 161.09 204.25 159.83 204.25 160.46 203.16"/>
      <polygon class="cls-1" points="151.81 208.86 150.6 210.94 149.39 208.86 151.81 208.86"/>
      <polygon class="cls-1" points="145.67 210.71 147.13 213.22 144.22 213.22 145.67 210.71"/>
      <polygon class="cls-1" points="137.72 216.95 135.81 220.24 133.9 216.95 137.72 216.95"/>
      <polygon class="cls-1" points="130.88 218.37 133.06 222.13 128.69 222.13 130.88 218.37"/>
      <polygon class="cls-1" points="123.57 225.08 121.02 229.48 118.46 225.08 123.57 225.08"/>
      <polygon class="cls-1" points="116.09 226.25 118.81 230.94 113.36 230.94 116.09 226.25"/>
      <polygon class="cls-1" points="170.5 192.46 170.32 192.76 170.15 192.46 170.5 192.46"/>
      <polygon class="cls-1" points="165.39 194.95 165.78 195.62 165.01 195.62 165.39 194.95"/>
      <polygon class="cls-1" points="156.38 200.57 155.53 202.03 154.69 200.57 156.38 200.57"/>
      <polygon class="cls-1" points="150.6 202.5 151.81 204.58 149.39 204.58 150.6 202.5"/>
      <polygon class="cls-1" points="142.42 208.59 140.74 211.48 139.06 208.59 142.42 208.59"/>
      <polygon class="cls-1" points="135.81 210.19 137.72 213.48 133.9 213.48 135.81 210.19"/>
      <polygon class="cls-1" points="128.34 216.68 125.95 220.79 123.56 216.68 128.34 216.68"/>
      <polygon class="cls-1" points="121.02 217.95 123.57 222.35 118.46 222.35 121.02 217.95"/>
      <polygon class="cls-1" points="114.1 224.86 111.16 229.92 108.22 224.86 114.1 224.86"/>
      <polygon class="cls-1" points="106.23 225.85 109.3 231.14 103.16 231.14 106.23 225.85"/>
      <polygon class="cls-1" points="170.32 186.72 170.48 186.99 170.17 186.99 170.32 186.72"/>
      <polygon class="cls-1" points="161.04 192.23 160.46 193.22 159.89 192.23 161.04 192.23"/>
      <polygon class="cls-1" points="155.53 194.43 156.38 195.88 154.69 195.88 155.53 194.43"/>
      <polygon class="cls-1" points="147.09 200.24 145.67 202.69 144.25 200.24 147.09 200.24"/>
      <polygon class="cls-1" points="140.74 201.96 142.42 204.85 139.06 204.85 140.74 201.96"/>
      <polygon class="cls-1" points="133.1 208.28 130.88 212.11 128.65 208.28 133.1 208.28"/>
      <polygon class="cls-1" points="125.95 209.64 128.34 213.76 123.56 213.76 125.95 209.64"/>
      <polygon class="cls-1" points="118.81 216.48 116.09 221.18 113.36 216.48 118.81 216.48"/>
      <polygon class="cls-1" points="111.16 217.45 114.14 222.59 108.17 222.59 111.16 217.45"/>
      <polygon class="cls-1" points="104.5 224.7 101.29 230.22 98.09 224.7 104.5 224.7"/>
      <polygon class="cls-1" points="96.36 225.59 99.66 231.27 93.07 231.27 96.36 225.59"/>
      <polygon class="cls-1" points="165.73 183.88 165.39 184.45 165.06 183.88 165.73 183.88"/>
      <polygon class="cls-1" points="160.46 186.27 161.01 187.21 159.92 187.21 160.46 186.27"/>
      <polygon class="cls-1" points="151.78 191.89 150.6 193.91 149.43 191.89 151.78 191.89"/>
      <polygon class="cls-1" points="145.67 193.76 147.09 196.21 144.25 196.21 145.67 193.76"/>
      <polygon class="cls-1" points="137.68 199.99 135.81 203.2 133.94 199.99 137.68 199.99"/>
      <polygon class="cls-1" points="130.88 201.34 133.1 205.17 128.65 205.17 130.88 201.34"/>
      <polygon class="cls-1" points="123.61 208.06 121.02 212.54 118.42 208.06 123.61 208.06"/>
      <polygon class="cls-1" points="116.09 209.21 118.85 213.97 113.32 213.97 116.09 209.21"/>
      <polygon class="cls-1" points="109.34 216.26 106.23 221.63 103.11 216.26 109.34 216.26"/>
      <polygon class="cls-1" points="101.29 217.2 104.5 222.72 98.09 222.72 101.29 217.2"/>
      <polygon class="cls-1" points="94.74 224.65 91.43 230.34 88.13 224.65 94.74 224.65"/>
      <polygon class="cls-1" points="86.5 225.58 89.81 231.27 83.2 231.27 86.5 225.58"/>
      <polygon class="cls-1" points="170.42 175.52 170.32 175.68 170.23 175.52 170.42 175.52"/>
      <polygon class="cls-1" points="165.39 178.08 165.68 178.57 165.11 178.57 165.39 178.08"/>
      <polygon class="cls-1" points="156.31 183.62 155.53 184.97 154.75 183.62 156.31 183.62"/>
      <polygon class="cls-1" points="150.6 185.59 151.74 187.55 149.46 187.55 150.6 185.59"/>
      <polygon class="cls-1" points="142.38 191.62 140.74 194.45 139.1 191.62 142.38 191.62"/>
      <polygon class="cls-1" points="135.81 193.25 137.68 196.47 133.94 196.47 135.81 193.25"/>
      <polygon class="cls-1" points="128.34 199.69 125.95 203.8 123.56 199.69 128.34 199.69"/>
      <polygon class="cls-1" points="121.02 200.91 123.61 205.38 118.42 205.38 121.02 200.91"/>
      <polygon class="cls-1" points="114.14 207.84 111.16 212.98 108.17 207.84 114.14 207.84"/>
      <polygon class="cls-1" points="106.23 208.81 109.34 214.17 103.11 214.17 106.23 208.81"/>
      <polygon class="cls-1" points="99.67 216.15 96.36 221.84 93.06 216.15 99.67 216.15"/>
      <polygon class="cls-1" points="91.43 217.09 94.74 222.78 88.13 222.78 91.43 217.09"/>
      <polygon class="cls-1" points="84.88 224.65 81.57 230.34 78.27 224.65 84.88 224.65"/>
      <polygon class="cls-1" points="76.64 225.58 79.94 231.27 73.34 231.27 76.64 225.58"/>
      <polygon class="cls-1" points="170.32 169.84 170.39 169.95 170.26 169.95 170.32 169.84"/>
      <polygon class="cls-1" points="160.95 175.29 160.46 176.14 159.97 175.29 160.95 175.29"/>
      <polygon class="cls-1" points="155.53 177.58 156.25 178.82 154.81 178.82 155.53 177.58"/>
      <polygon class="cls-1" points="147.02 183.29 145.67 185.62 144.32 183.29 147.02 183.29"/>
      <polygon class="cls-1" points="140.74 185.06 142.34 187.82 139.14 187.82 140.74 185.06"/>
      <polygon class="cls-1" points="133.02 191.33 130.88 195.03 128.73 191.33 133.02 191.33"/>
      <polygon class="cls-1" points="125.95 192.65 128.34 196.77 123.56 196.77 125.95 192.65"/>
      <polygon class="cls-1" points="118.81 199.49 116.09 204.19 113.36 199.49 118.81 199.49"/>
      <polygon class="cls-1" points="111.16 200.46 114.14 205.6 108.17 205.6 111.16 200.46"/>
      <polygon class="cls-1" points="104.54 207.69 101.29 213.28 98.05 207.69 104.54 207.69"/>
      <polygon class="cls-1" points="96.36 208.59 99.67 214.28 93.06 214.28 96.36 208.59"/>
      <polygon class="cls-1" points="89.81 216.15 86.5 221.84 83.2 216.15 89.81 216.15"/>
      <polygon class="cls-1" points="81.57 217.09 84.88 222.78 78.27 222.78 81.57 217.09"/>
      <polygon class="cls-1" points="75.01 224.65 71.71 230.34 68.41 224.65 75.01 224.65"/>
      <polygon class="cls-1" points="66.78 225.58 70.08 231.27 63.48 231.27 66.78 225.58"/>
      <polygon class="cls-1" points="165.59 166.97 165.39 167.3 165.2 166.97 165.59 166.97"/>
      <polygon class="cls-1" points="160.46 169.44 160.87 170.15 160.05 170.15 160.46 169.44"/>
      <polygon class="cls-1" points="151.64 174.98 150.6 176.77 149.56 174.98 151.64 174.98"/>
      <polygon class="cls-1" points="145.67 176.9 146.98 179.16 144.36 179.16 145.67 176.9"/>
      <polygon class="cls-1" points="137.6 183.04 135.81 186.13 134.02 183.04 137.6 183.04"/>
      <polygon class="cls-1" points="130.88 184.44 133.02 188.13 128.73 188.13 130.88 184.44"/>
      <polygon class="cls-1" points="123.57 191.1 121.02 195.5 118.46 191.1 123.57 191.1"/>
      <polygon class="cls-1" points="116.09 192.27 118.81 196.96 113.36 196.96 116.09 192.27"/>
      <polygon class="cls-1" points="109.34 199.27 106.23 204.64 103.11 199.27 109.34 199.27"/>
      <polygon class="cls-1" points="101.29 200.16 104.54 205.76 98.05 205.76 101.29 200.16"/>
      <polygon class="cls-1" points="94.74 207.66 91.43 213.35 88.13 207.66 94.74 207.66"/>
      <polygon class="cls-1" points="86.5 208.59 89.81 214.28 83.2 214.28 86.5 208.59"/>
      <polygon class="cls-1" points="79.94 216.15 76.64 221.84 73.34 216.15 79.94 216.15"/>
      <polygon class="cls-1" points="71.71 217.09 75.01 222.78 68.41 222.78 71.71 217.09"/>
      <polygon class="cls-1" points="65.15 224.65 61.85 230.34 58.55 224.65 65.15 224.65"/>
      <polygon class="cls-1" points="56.92 225.58 60.22 231.27 53.62 231.27 56.92 225.58"/>
      <polygon class="cls-1" points="170.33 158.58 170.32 158.59 170.32 158.58 170.33 158.58"/>
      <polygon class="cls-1" points="165.39 161.24 165.55 161.5 165.24 161.5 165.39 161.24"/>
      <polygon class="cls-1" points="156.14 166.73 155.53 167.77 154.93 166.73 156.14 166.73"/>
      <polygon class="cls-1" points="150.6 168.79 151.57 170.47 149.63 170.47 150.6 168.79"/>
      <polygon class="cls-1" points="142.23 174.72 140.74 177.29 139.25 174.72 142.23 174.72"/>
      <polygon class="cls-1" points="135.81 176.39 137.56 179.41 134.06 179.41 135.81 176.39"/>
      <polygon class="cls-1" points="128.25 182.74 125.95 186.72 123.64 182.74 128.25 182.74"/>
      <polygon class="cls-1" points="121.02 184.01 123.53 188.34 118.51 188.34 121.02 184.01"/>
      <polygon class="cls-1" points="114.1 190.88 111.16 195.94 108.22 190.88 114.1 190.88"/>
      <polygon class="cls-1" points="106.23 191.82 109.34 197.18 103.11 197.18 106.23 191.82"/>
      <polygon class="cls-1" points="99.67 199.16 96.36 204.85 93.06 199.16 99.67 199.16"/>
      <polygon class="cls-1" points="91.43 200.1 94.74 205.79 88.13 205.79 91.43 200.1"/>
      <polygon class="cls-1" points="84.88 207.66 81.57 213.35 78.27 207.66 84.88 207.66"/>
      <polygon class="cls-1" points="76.64 208.59 79.94 214.28 73.34 214.28 76.64 208.59"/>
      <polygon class="cls-1" points="70.08 216.15 66.78 221.84 63.48 216.15 70.08 216.15"/>
      <polygon class="cls-1" points="61.85 217.09 65.15 222.78 58.55 222.78 61.85 217.09"/>
      <polygon class="cls-1" points="55.29 224.65 51.99 230.34 48.68 224.65 55.29 224.65"/>
      <polygon class="cls-1" points="47.06 225.58 50.36 231.27 43.75 231.27 47.06 225.58"/>
      <polygon class="cls-1" points="160.77 158.41 160.46 158.94 160.15 158.41 160.77 158.41"/>
      <polygon class="cls-1" points="155.53 160.79 156.08 161.73 154.99 161.73 155.53 160.79"/>
      <polygon class="cls-1" points="146.84 166.4 145.67 168.43 144.5 166.4 146.84 166.4"/>
      <polygon class="cls-1" points="140.74 168.24 142.2 170.75 139.28 170.75 140.74 168.24"/>
      <polygon class="cls-1" points="132.94 174.39 130.88 177.94 128.81 174.39 132.94 174.39"/>
      <polygon class="cls-1" points="125.95 175.8 128.21 179.71 123.68 179.71 125.95 175.8"/>
      <polygon class="cls-1" points="118.77 182.53 116.09 187.15 113.41 182.53 118.77 182.53"/>
      <polygon class="cls-1" points="111.16 183.52 114.1 188.59 108.22 188.59 111.16 183.52"/>
      <polygon class="cls-1" points="104.5 190.72 101.29 196.24 98.09 190.72 104.5 190.72"/>
      <polygon class="cls-1" points="96.36 191.6 99.67 197.29 93.06 197.29 96.36 191.6"/>
      <polygon class="cls-1" points="89.81 199.16 86.5 204.85 83.2 199.16 89.81 199.16"/>
      <polygon class="cls-1" points="81.57 200.1 84.88 205.79 78.27 205.79 81.57 200.1"/>
      <polygon class="cls-1" points="75.01 207.66 71.71 213.35 68.41 207.66 75.01 207.66"/>
      <polygon class="cls-1" points="66.78 208.59 70.08 214.28 63.48 214.28 66.78 208.59"/>
      <polygon class="cls-1" points="60.22 216.15 56.92 221.84 53.62 216.15 60.22 216.15"/>
      <polygon class="cls-1" points="51.99 217.09 55.29 222.78 48.68 222.78 51.99 217.09"/>
      <polygon class="cls-1" points="45.43 224.65 42.13 230.34 38.82 224.65 45.43 224.65"/>
      <polygon class="cls-1" points="37.2 225.58 40.5 231.27 33.89 231.27 37.2 225.58"/>
      <polygon class="cls-1" points="165.46 150.05 165.39 150.16 165.33 150.05 165.46 150.05"/>
      <polygon class="cls-1" points="160.46 152.65 160.7 153.06 160.22 153.06 160.46 152.65"/>
      <polygon class="cls-1" points="151.45 158.1 150.6 159.55 149.76 158.1 151.45 158.1"/>
      <polygon class="cls-1" points="145.67 160.15 146.78 162.05 144.57 162.05 145.67 160.15"/>
      <polygon class="cls-1" points="137.45 166.14 135.81 168.96 134.17 166.14 137.45 166.14"/>
      <polygon class="cls-1" points="130.88 167.63 132.86 171.05 128.89 171.05 130.88 167.63"/>
      <polygon class="cls-1" points="123.45 174.18 121.02 178.36 118.59 174.18 123.45 174.18"/>
      <polygon class="cls-1" points="116.09 175.37 118.73 179.92 113.45 179.92 116.09 175.37"/>
      <polygon class="cls-1" points="109.3 182.31 106.23 187.6 103.16 182.31 109.3 182.31"/>
      <polygon class="cls-1" points="101.29 183.22 104.5 188.74 98.09 188.74 101.29 183.22"/>
      <polygon class="cls-1" points="94.74 190.67 91.43 196.36 88.13 190.67 94.74 190.67"/>
      <polygon class="cls-1" points="86.5 191.6 89.81 197.29 83.2 197.29 86.5 191.6"/>
      <polygon class="cls-1" points="79.94 199.16 76.64 204.85 73.34 199.16 79.94 199.16"/>
      <polygon class="cls-1" points="71.71 200.1 75.01 205.79 68.41 205.79 71.71 200.1"/>
      <polygon class="cls-1" points="65.15 207.66 61.85 213.35 58.55 207.66 65.15 207.66"/>
      <polygon class="cls-1" points="56.92 208.59 60.22 214.28 53.62 214.28 56.92 208.59"/>
      <polygon class="cls-1" points="50.36 216.15 47.06 221.84 43.75 216.15 50.36 216.15"/>
      <polygon class="cls-1" points="42.13 217.09 45.43 222.78 38.82 222.78 42.13 217.09"/>
      <polygon class="cls-1" points="35.57 224.65 32.27 230.34 28.96 224.65 35.57 224.65"/>
      <polygon class="cls-1" points="27.33 225.59 30.63 231.27 24.04 231.27 27.33 225.59"/>
      <polygon class="cls-1" points="165.39 144.42 165.4 144.43 165.39 144.43 165.39 144.42"/>
      <polygon class="cls-1" points="155.94 149.85 155.53 150.56 155.12 149.85 155.94 149.85"/>
      <polygon class="cls-1" points="150.6 152.06 151.35 153.35 149.85 153.35 150.6 152.06"/>
      <polygon class="cls-1" points="142.05 157.83 140.74 160.09 139.43 157.83 142.05 157.83"/>
      <polygon class="cls-1" points="135.81 159.62 137.38 162.31 134.24 162.31 135.81 159.62"/>
      <polygon class="cls-1" points="128.09 165.85 125.95 169.54 123.8 165.85 128.09 165.85"/>
      <polygon class="cls-1" points="121.02 167.17 123.41 171.28 118.63 171.28 121.02 167.17"/>
      <polygon class="cls-1" points="114.01 173.94 111.16 178.85 108.3 173.94 114.01 173.94"/>
      <polygon class="cls-1" points="106.23 174.93 109.25 180.14 103.2 180.14 106.23 174.93"/>
      <polygon class="cls-1" points="99.66 182.18 96.36 187.85 93.07 182.18 99.66 182.18"/>
      <polygon class="cls-1" points="91.43 183.11 94.74 188.8 88.13 188.8 91.43 183.11"/>
      <polygon class="cls-1" points="84.88 190.67 81.57 196.36 78.27 190.67 84.88 190.67"/>
      <polygon class="cls-1" points="76.64 191.6 79.94 197.29 73.34 197.29 76.64 191.6"/>
      <polygon class="cls-1" points="70.08 199.16 66.78 204.85 63.48 199.16 70.08 199.16"/>
      <polygon class="cls-1" points="61.85 200.1 65.15 205.79 58.55 205.79 61.85 200.1"/>
      <polygon class="cls-1" points="55.29 207.66 51.99 213.35 48.68 207.66 55.29 207.66"/>
      <polygon class="cls-1" points="47.06 208.59 50.36 214.28 43.75 214.28 47.06 208.59"/>
      <polygon class="cls-1" points="40.5 216.15 37.2 221.84 33.89 216.15 40.5 216.15"/>
      <polygon class="cls-1" points="32.27 217.09 35.57 222.78 28.96 222.78 32.27 217.09"/>
      <polygon class="cls-1" points="25.61 224.7 22.4 230.22 19.2 224.7 25.61 224.7"/>
      <polygon class="cls-1" points="17.47 225.85 20.54 231.14 14.4 231.14 17.47 225.85"/>
      <polygon class="cls-1" points="160.58 141.53 160.46 141.72 160.35 141.53 160.58 141.53"/>
      <polygon class="cls-1" points="155.53 144.04 155.87 144.62 155.2 144.62 155.53 144.04"/>
      <polygon class="cls-1" points="146.61 149.55 145.67 151.17 144.73 149.55 146.61 149.55"/>
      <polygon class="cls-1" points="140.74 151.53 141.95 153.61 139.53 153.61 140.74 151.53"/>
      <polygon class="cls-1" points="132.71 157.53 130.88 160.69 129.05 157.53 132.71 157.53"/>
      <polygon class="cls-1" points="125.95 159.04 128.01 162.6 123.88 162.6 125.95 159.04"/>
      <polygon class="cls-1" points="118.64 165.61 116.09 170.01 113.53 165.61 118.64 165.61"/>
      <polygon class="cls-1" points="111.16 166.68 113.97 171.52 108.35 171.52 111.16 166.68"/>
      <polygon class="cls-1" points="104.45 173.76 101.29 179.2 98.14 173.76 104.45 173.76"/>
      <polygon class="cls-1" points="96.36 174.62 99.66 180.3 93.07 180.3 96.36 174.62"/>
      <polygon class="cls-1" points="89.81 182.17 86.5 187.86 83.2 182.17 89.81 182.17"/>
      <polygon class="cls-1" points="81.57 183.11 84.88 188.8 78.27 188.8 81.57 183.11"/>
      <polygon class="cls-1" points="75.01 190.67 71.71 196.36 68.41 190.67 75.01 190.67"/>
      <polygon class="cls-1" points="66.78 191.6 70.08 197.29 63.48 197.29 66.78 191.6"/>
      <polygon class="cls-1" points="60.22 199.16 56.92 204.85 53.62 199.16 60.22 199.16"/>
      <polygon class="cls-1" points="51.99 200.1 55.29 205.79 48.68 205.79 51.99 200.1"/>
      <polygon class="cls-1" points="45.43 207.66 42.13 213.35 38.82 207.66 45.43 207.66"/>
      <polygon class="cls-1" points="37.2 208.59 40.5 214.28 33.89 214.28 37.2 208.59"/>
      <polygon class="cls-1" points="30.64 216.15 27.33 221.84 24.03 216.15 30.64 216.15"/>
      <polygon class="cls-1" points="22.4 217.15 25.65 222.75 19.16 222.75 22.4 217.15"/>
      <polygon class="cls-1" points="15.44 224.88 12.54 229.87 9.65 224.88 15.44 224.88"/>
      <polygon class="cls-1" points="7.61 226.25 10.34 230.94 4.89 230.94 7.61 226.25"/>
      <polygon class="cls-1" points="160.46 135.84 160.54 135.97 160.39 135.97 160.46 135.84"/>
      <polygon class="cls-1" points="151.18 141.26 150.6 142.25 150.03 141.26 151.18 141.26"/>
      <polygon class="cls-1" points="145.67 143.46 146.52 144.91 144.83 144.91 145.67 143.46"/>
      <polygon class="cls-1" points="137.19 149.29 135.81 151.68 134.43 149.29 137.19 149.29"/>
      <polygon class="cls-1" points="130.88 150.95 132.59 153.91 129.16 153.91 130.88 150.95"/>
      <polygon class="cls-1" points="123.24 157.31 121.02 161.14 118.79 157.31 123.24 157.31"/>
      <polygon class="cls-1" points="116.09 158.58 118.56 162.83 113.62 162.83 116.09 158.58"/>
      <polygon class="cls-1" points="109.16 165.39 106.23 170.45 103.29 165.39 109.16 165.39"/>
      <polygon class="cls-1" points="101.29 166.33 104.41 171.7 98.18 171.7 101.29 166.33"/>
      <polygon class="cls-1" points="94.74 173.68 91.43 179.37 88.13 173.68 94.74 173.68"/>
      <polygon class="cls-1" points="86.5 174.61 89.81 180.3 83.2 180.3 86.5 174.61"/>
      <polygon class="cls-1" points="79.94 182.17 76.64 187.86 73.34 182.17 79.94 182.17"/>
      <polygon class="cls-1" points="71.71 183.11 75.01 188.8 68.41 188.8 71.71 183.11"/>
      <polygon class="cls-1" points="65.15 190.67 61.85 196.36 58.55 190.67 65.15 190.67"/>
      <polygon class="cls-1" points="56.92 191.6 60.22 197.29 53.62 197.29 56.92 191.6"/>
      <polygon class="cls-1" points="50.36 199.16 47.06 204.85 43.75 199.16 50.36 199.16"/>
      <polygon class="cls-1" points="42.13 200.1 45.43 205.79 38.82 205.79 42.13 200.1"/>
      <polygon class="cls-1" points="35.57 207.66 32.27 213.35 28.96 207.66 35.57 207.66"/>
      <polygon class="cls-1" points="27.33 208.59 30.64 214.28 24.03 214.28 27.33 208.59"/>
      <polygon class="cls-1" points="20.59 216.26 17.47 221.63 14.36 216.26 20.59 216.26"/>
      <polygon class="cls-1" points="12.54 217.55 15.44 222.54 9.65 222.54 12.54 217.55"/>
      <polygon class="cls-1" points="5.24 225.08 2.68 229.48 .13 225.08 5.24 225.08"/>
      <polygon class="cls-1" points="155.71 133 155.53 133.3 155.36 133 155.71 133"/>
      <polygon class="cls-1" points="150.6 135.34 151.12 136.23 150.08 136.23 150.6 135.34"/>
      <polygon class="cls-1" points="141.75 141.02 140.74 142.75 139.74 141.02 141.75 141.02"/>
      <polygon class="cls-1" points="135.81 143 137.05 145.14 134.57 145.14 135.81 143"/>
      <polygon class="cls-1" points="127.86 148.99 125.95 152.28 124.04 148.99 127.86 148.99"/>
      <polygon class="cls-1" points="121.02 150.46 123.16 154.15 118.87 154.15 121.02 150.46"/>
      <polygon class="cls-1" points="113.84 157.04 111.16 161.66 108.48 157.04 113.84 157.04"/>
      <polygon class="cls-1" points="106.23 158.14 109.08 163.05 103.37 163.05 106.23 158.14"/>
      <polygon class="cls-1" points="99.57 165.24 96.36 170.76 93.16 165.24 99.57 165.24"/>
      <polygon class="cls-1" points="91.43 166.12 94.74 171.81 88.13 171.81 91.43 166.12"/>
      <polygon class="cls-1" points="84.88 173.68 81.57 179.37 78.27 173.68 84.88 173.68"/>
      <polygon class="cls-1" points="76.64 174.61 79.94 180.3 73.34 180.3 76.64 174.61"/>
      <polygon class="cls-1" points="70.08 182.17 66.78 187.86 63.48 182.17 70.08 182.17"/>
      <polygon class="cls-1" points="61.85 183.11 65.15 188.8 58.55 188.8 61.85 183.11"/>
      <polygon class="cls-1" points="55.29 190.67 51.99 196.36 48.68 190.67 55.29 190.67"/>
      <polygon class="cls-1" points="47.06 191.6 50.36 197.29 43.75 197.29 47.06 191.6"/>
      <polygon class="cls-1" points="40.5 199.16 37.2 204.85 33.89 199.16 40.5 199.16"/>
      <polygon class="cls-1" points="32.27 200.1 35.57 205.79 28.96 205.79 32.27 200.1"/>
      <polygon class="cls-1" points="25.65 207.69 22.4 213.28 19.16 207.69 25.65 207.69"/>
      <polygon class="cls-1" points="17.47 208.81 20.59 214.17 14.36 214.17 17.47 208.81"/>
      <polygon class="cls-1" points="10.34 216.48 7.61 221.18 4.89 216.48 10.34 216.48"/>
      <polygon class="cls-1" points="2.68 217.95 5.24 222.35 .13 222.35 2.68 217.95"/>
      <polygon class="cls-1" points="155.53 127.28 155.67 127.51 155.4 127.51 155.53 127.28"/>
      <polygon class="cls-1" points="146.3 132.74 145.67 133.82 145.04 132.74 146.3 132.74"/>
      <polygon class="cls-1" points="140.74 134.89 141.65 136.45 139.83 136.45 140.74 134.89"/>
      <polygon class="cls-1" points="132.41 140.72 130.88 143.35 129.35 140.72 132.41 140.72"/>
      <polygon class="cls-1" points="125.95 142.37 127.74 145.45 124.16 145.45 125.95 142.37"/>
      <polygon class="cls-1" points="118.35 148.79 116.09 152.69 113.82 148.79 118.35 148.79"/>
      <polygon class="cls-1" points="111.16 149.99 113.71 154.39 108.6 154.39 111.16 149.99"/>
      <polygon class="cls-1" points="104.28 156.87 101.29 162.01 98.31 156.87 104.28 156.87"/>
      <polygon class="cls-1" points="96.36 157.84 99.48 163.2 93.25 163.2 96.36 157.84"/>
      <polygon class="cls-1" points="89.81 165.18 86.5 170.87 83.2 165.18 89.81 165.18"/>
      <polygon class="cls-1" points="81.57 166.12 84.88 171.81 78.27 171.81 81.57 166.12"/>
      <polygon class="cls-1" points="75.01 173.68 71.71 179.37 68.41 173.68 75.01 173.68"/>
      <polygon class="cls-1" points="66.78 174.61 70.08 180.3 63.48 180.3 66.78 174.61"/>
      <polygon class="cls-1" points="60.22 182.17 56.92 187.86 53.62 182.17 60.22 182.17"/>
      <polygon class="cls-1" points="51.99 183.11 55.29 188.8 48.68 188.8 51.99 183.11"/>
      <polygon class="cls-1" points="45.43 190.67 42.13 196.36 38.82 190.67 45.43 190.67"/>
      <polygon class="cls-1" points="37.2 191.6 40.5 197.29 33.89 197.29 37.2 191.6"/>
      <polygon class="cls-1" points="30.64 199.16 27.33 204.85 24.03 199.16 30.64 199.16"/>
      <polygon class="cls-1" points="22.4 200.16 25.65 205.76 19.16 205.76 22.4 200.16"/>
      <polygon class="cls-1" points="15.48 207.87 12.54 212.93 9.6 207.87 15.48 207.87"/>
      <polygon class="cls-1" points="7.61 209.21 10.38 213.97 4.85 213.97 7.61 209.21"/>
      <polygon class="cls-1" points="150.91 124.43 150.6 124.96 150.29 124.43 150.91 124.43"/>
      <polygon class="cls-1" points="145.67 126.81 146.22 127.75 145.13 127.75 145.67 126.81"/>
      <polygon class="cls-1" points="136.85 132.5 135.81 134.29 134.77 132.5 136.85 132.5"/>
      <polygon class="cls-1" points="130.88 134.3 132.3 136.75 129.46 136.75 130.88 134.3"/>
      <polygon class="cls-1" points="122.92 140.5 121.02 143.78 119.11 140.5 122.92 140.5"/>
      <polygon class="cls-1" points="116.09 141.96 118.23 145.66 113.94 145.66 116.09 141.96"/>
      <polygon class="cls-1" points="108.95 148.52 106.23 153.22 103.5 148.52 108.95 148.52"/>
      <polygon class="cls-1" points="101.29 149.59 104.19 154.58 98.4 154.58 101.29 149.59"/>
      <polygon class="cls-1" points="94.73 156.69 91.43 162.37 88.14 156.69 94.73 156.69"/>
      <polygon class="cls-1" points="86.5 157.62 89.81 163.31 83.2 163.31 86.5 157.62"/>
      <polygon class="cls-1" points="79.94 165.18 76.64 170.87 73.34 165.18 79.94 165.18"/>
      <polygon class="cls-1" points="71.71 166.12 75.01 171.81 68.41 171.81 71.71 166.12"/>
      <polygon class="cls-1" points="65.15 173.68 61.85 179.37 58.55 173.68 65.15 173.68"/>
      <polygon class="cls-1" points="56.92 174.61 60.22 180.3 53.62 180.3 56.92 174.61"/>
      <polygon class="cls-1" points="50.36 182.17 47.06 187.86 43.75 182.17 50.36 182.17"/>
      <polygon class="cls-1" points="42.13 183.11 45.43 188.8 38.82 188.8 42.13 183.11"/>
      <polygon class="cls-1" points="35.57 190.67 32.27 196.36 28.96 190.67 35.57 190.67"/>
      <polygon class="cls-1" points="27.33 191.6 30.64 197.29 24.03 197.29 27.33 191.6"/>
      <polygon class="cls-1" points="20.63 199.24 17.47 204.69 14.31 199.24 20.63 199.24"/>
      <polygon class="cls-1" points="12.54 200.51 15.48 205.58 9.6 205.58 12.54 200.51"/>
      <polygon class="cls-1" points="5.28 208.06 2.68 212.54 .08 208.06 5.28 208.06"/>
      <polygon class="cls-1" points="155.53 116.11 155.53 116.11 155.53 116.11 155.53 116.11"/>
      <polygon class="cls-1" points="150.6 118.67 150.84 119.08 150.36 119.08 150.6 118.67"/>
      <polygon class="cls-1" points="141.4 124.22 140.74 125.36 140.08 124.22 141.4 124.22"/>
      <polygon class="cls-1" points="135.81 126.36 136.75 127.97 134.87 127.97 135.81 126.36"/>
      <polygon class="cls-1" points="127.48 132.22 125.95 134.85 124.42 132.22 127.48 132.22"/>
      <polygon class="cls-1" points="121.02 133.83 122.85 136.98 119.19 136.98 121.02 133.83"/>
      <polygon class="cls-1" points="113.54 140.22 111.16 144.34 108.77 140.22 113.54 140.22"/>
      <polygon class="cls-1" points="106.23 141.44 108.82 145.92 103.63 145.92 106.23 141.44"/>
      <polygon class="cls-1" points="99.35 148.38 96.36 153.51 93.38 148.38 99.35 148.38"/>
      <polygon class="cls-1" points="91.43 149.24 94.64 154.76 88.23 154.76 91.43 149.24"/>
      <polygon class="cls-1" points="84.88 156.69 81.57 162.38 78.27 156.69 84.88 156.69"/>
      <polygon class="cls-1" points="76.64 157.62 79.94 163.31 73.34 163.31 76.64 157.62"/>
      <polygon class="cls-1" points="70.08 165.18 66.78 170.87 63.48 165.18 70.08 165.18"/>
      <polygon class="cls-1" points="61.85 166.12 65.15 171.81 58.55 171.81 61.85 166.12"/>
      <polygon class="cls-1" points="55.29 173.68 51.99 179.37 48.68 173.68 55.29 173.68"/>
      <polygon class="cls-1" points="47.06 174.61 50.36 180.3 43.75 180.3 47.06 174.61"/>
      <polygon class="cls-1" points="40.5 182.17 37.2 187.86 33.89 182.17 40.5 182.17"/>
      <polygon class="cls-1" points="32.27 183.11 35.57 188.8 28.96 188.8 32.27 183.11"/>
      <polygon class="cls-1" points="25.7 190.67 22.4 196.35 19.11 190.67 25.7 190.67"/>
      <polygon class="cls-1" points="17.47 191.77 20.63 197.21 14.31 197.21 17.47 191.77"/>
      <polygon class="cls-1" points="10.38 199.47 7.61 204.24 4.85 199.47 10.38 199.47"/>
      <polygon class="cls-1" points="2.68 200.91 5.28 205.38 .08 205.38 2.68 200.91"/>
      <polygon class="cls-1" points="146 115.92 145.67 116.49 145.34 115.92 146 115.92"/>
      <polygon class="cls-1" points="140.74 118.28 141.31 119.27 140.17 119.27 140.74 118.28"/>
      <polygon class="cls-1" points="132.02 123.95 130.88 125.91 129.74 123.95 132.02 123.95"/>
      <polygon class="cls-1" points="125.95 125.8 127.37 128.25 124.53 128.25 125.95 125.8"/>
      <polygon class="cls-1" points="117.99 132 116.09 135.29 114.18 132 117.99 132"/>
      <polygon class="cls-1" points="111.16 133.33 113.42 137.23 108.89 137.23 111.16 133.33"/>
      <polygon class="cls-1" points="103.98 140.05 101.29 144.67 98.61 140.05 103.98 140.05"/>
      <polygon class="cls-1" points="96.36 141.15 99.22 146.06 93.51 146.06 96.36 141.15"/>
      <polygon class="cls-1" points="89.75 148.22 86.5 153.82 83.26 148.22 89.75 148.22"/>
      <polygon class="cls-1" points="81.57 149.13 84.88 154.82 78.27 154.82 81.57 149.13"/>
      <polygon class="cls-1" points="75.01 156.69 71.71 162.38 68.41 156.69 75.01 156.69"/>
      <polygon class="cls-1" points="66.78 157.62 70.08 163.31 63.48 163.31 66.78 157.62"/>
      <polygon class="cls-1" points="60.22 165.18 56.92 170.87 53.62 165.18 60.22 165.18"/>
      <polygon class="cls-1" points="51.99 166.12 55.29 171.81 48.68 171.81 51.99 166.12"/>
      <polygon class="cls-1" points="45.43 173.68 42.13 179.37 38.82 173.68 45.43 173.68"/>
      <polygon class="cls-1" points="37.2 174.61 40.5 180.3 33.89 180.3 37.2 174.61"/>
      <polygon class="cls-1" points="30.64 182.17 27.33 187.86 24.03 182.17 30.64 182.17"/>
      <polygon class="cls-1" points="22.4 183.12 25.7 188.79 19.11 188.79 22.4 183.12"/>
      <polygon class="cls-1" points="15.48 190.88 12.54 195.94 9.6 190.88 15.48 190.88"/>
      <polygon class="cls-1" points="7.61 192.17 10.42 197.01 4.8 197.01 7.61 192.17"/>
      <polygon class="cls-1" points="150.68 107.57 150.6 107.7 150.52 107.57 150.68 107.57"/>
      <polygon class="cls-1" points="145.67 110.17 145.91 110.58 145.43 110.58 145.67 110.17"/>
      <polygon class="cls-1" points="136.47 115.73 135.81 116.87 135.15 115.73 136.47 115.73"/>
      <polygon class="cls-1" points="130.88 117.75 131.92 119.54 129.84 119.54 130.88 117.75"/>
      <polygon class="cls-1" points="122.55 123.73 121.02 126.36 119.49 123.73 122.55 123.73"/>
      <polygon class="cls-1" points="116.09 125.33 117.92 128.49 114.26 128.49 116.09 125.33"/>
      <polygon class="cls-1" points="108.57 131.75 106.23 135.79 103.88 131.75 108.57 131.75"/>
      <polygon class="cls-1" points="101.29 132.95 103.89 137.42 98.7 137.42 101.29 132.95"/>
      <polygon class="cls-1" points="94.46 139.86 91.43 145.07 88.41 139.86 94.46 139.86"/>
      <polygon class="cls-1" points="86.5 140.8 89.66 146.24 83.34 146.24 86.5 140.8"/>
      <polygon class="cls-1" points="79.94 148.19 76.64 153.88 73.34 148.19 79.94 148.19"/>
      <polygon class="cls-1" points="71.71 149.13 75.01 154.82 68.41 154.82 71.71 149.13"/>
      <polygon class="cls-1" points="65.15 156.69 61.85 162.38 58.55 156.69 65.15 156.69"/>
      <polygon class="cls-1" points="56.92 157.62 60.22 163.31 53.62 163.31 56.92 157.62"/>
      <polygon class="cls-1" points="50.36 165.18 47.06 170.87 43.75 165.18 50.36 165.18"/>
      <polygon class="cls-1" points="42.13 166.12 45.43 171.81 38.82 171.81 42.13 166.12"/>
      <polygon class="cls-1" points="35.57 173.68 32.27 179.37 28.96 173.68 35.57 173.68"/>
      <polygon class="cls-1" points="27.33 174.61 30.64 180.3 24.03 180.3 27.33 174.61"/>
      <polygon class="cls-1" points="20.63 182.25 17.47 187.7 14.31 182.25 20.63 182.25"/>
      <polygon class="cls-1" points="12.54 183.47 15.53 188.61 9.56 188.61 12.54 183.47"/>
      <polygon class="cls-1" points="5.32 191.05 2.68 195.59 .04 191.05 5.32 191.05"/>
      <polygon class="cls-1" points="150.6 101.94 150.61 101.95 150.59 101.95 150.6 101.94"/>
      <polygon class="cls-1" points="141.1 107.41 140.74 108.03 140.38 107.41 141.1 107.41"/>
      <polygon class="cls-1" points="135.81 109.79 136.38 110.77 135.24 110.77 135.81 109.79"/>
      <polygon class="cls-1" points="127.05 115.47 125.95 117.38 124.84 115.47 127.05 115.47"/>
      <polygon class="cls-1" points="121.02 117.31 122.44 119.76 119.6 119.76 121.02 117.31"/>
      <polygon class="cls-1" points="113.1 123.49 111.16 126.84 109.21 123.49 113.1 123.49"/>
      <polygon class="cls-1" points="106.23 124.88 108.45 128.71 104 128.71 106.23 124.88"/>
      <polygon class="cls-1" points="99 131.58 96.36 136.13 93.73 131.58 99 131.58"/>
      <polygon class="cls-1" points="91.43 132.55 94.37 137.62 88.49 137.62 91.43 132.55"/>
      <polygon class="cls-1" points="84.78 139.75 81.57 145.27 78.37 139.75 84.78 139.75"/>
      <polygon class="cls-1" points="76.64 140.63 79.94 146.32 73.34 146.32 76.64 140.63"/>
      <polygon class="cls-1" points="70.08 148.19 66.78 153.88 63.48 148.19 70.08 148.19"/>
      <polygon class="cls-1" points="61.85 149.13 65.15 154.82 58.55 154.82 61.85 149.13"/>
      <polygon class="cls-1" points="55.29 156.69 51.99 162.38 48.68 156.69 55.29 156.69"/>
      <polygon class="cls-1" points="47.06 157.62 50.36 163.31 43.75 163.31 47.06 157.62"/>
      <polygon class="cls-1" points="40.5 165.18 37.2 170.87 33.89 165.18 40.5 165.18"/>
      <polygon class="cls-1" points="32.27 166.12 35.57 171.81 28.96 171.81 32.27 166.12"/>
      <polygon class="cls-1" points="25.7 173.68 22.4 179.36 19.11 173.68 25.7 173.68"/>
      <polygon class="cls-1" points="17.47 174.78 20.63 180.22 14.31 180.22 17.47 174.78"/>
      <polygon class="cls-1" points="10.42 182.46 7.61 187.3 4.8 182.46 10.42 182.46"/>
      <polygon class="cls-1" points="2.68 183.87 5.32 188.42 .04 188.42 2.68 183.87"/>
      <polygon class="cls-1" points="145.75 99.07 145.67 99.21 145.59 99.07 145.75 99.07"/>
      <polygon class="cls-1" points="140.74 101.68 140.98 102.09 140.5 102.09 140.74 101.68"/>
      <polygon class="cls-1" points="131.63 107.18 130.88 108.48 130.13 107.18 131.63 107.18"/>
      <polygon class="cls-1" points="125.95 109.29 126.95 111.02 124.94 111.02 125.95 109.29"/>
      <polygon class="cls-1" points="117.54 115.27 116.09 117.78 114.63 115.27 117.54 115.27"/>
      <polygon class="cls-1" points="111.16 116.84 112.99 119.99 109.33 119.99 111.16 116.84"/>
      <polygon class="cls-1" points="103.6 123.28 101.29 127.25 98.99 123.28 103.6 123.28"/>
      <polygon class="cls-1" points="96.36 124.5 98.92 128.9 93.81 128.9 96.36 124.5"/>
      <polygon class="cls-1" points="89.44 131.41 86.5 136.47 83.56 131.41 89.44 131.41"/>
      <polygon class="cls-1" points="81.57 132.3 84.73 137.74 78.41 137.74 81.57 132.3"/>
      <polygon class="cls-1" points="75.01 139.7 71.71 145.39 68.41 139.7 75.01 139.7"/>
      <polygon class="cls-1" points="66.78 140.63 70.08 146.32 63.48 146.32 66.78 140.63"/>
      <polygon class="cls-1" points="60.22 148.19 56.92 153.88 53.62 148.19 60.22 148.19"/>
      <polygon class="cls-1" points="51.99 149.13 55.29 154.82 48.68 154.82 51.99 149.13"/>
      <polygon class="cls-1" points="45.43 156.69 42.13 162.38 38.82 156.69 45.43 156.69"/>
      <polygon class="cls-1" points="37.2 157.62 40.5 163.31 33.89 163.31 37.2 157.62"/>
      <polygon class="cls-1" points="30.64 165.18 27.33 170.87 24.03 165.18 30.64 165.18"/>
      <polygon class="cls-1" points="22.4 166.13 25.7 171.8 19.11 171.8 22.4 166.13"/>
      <polygon class="cls-1" points="15.53 173.86 12.54 179 9.56 173.86 15.53 173.86"/>
      <polygon class="cls-1" points="7.61 175.18 10.42 180.02 4.8 180.02 7.61 175.18"/>
      <polygon class="cls-1" points="145.67 93.45 145.67 93.46 145.67 93.46 145.67 93.45"/>
      <polygon class="cls-1" points="136.14 98.93 135.81 99.5 135.48 98.93 136.14 98.93"/>
      <polygon class="cls-1" points="130.88 101.26 131.48 102.3 130.28 102.3 130.88 101.26"/>
      <polygon class="cls-1" points="122.12 106.98 121.02 108.88 119.91 106.98 122.12 106.98"/>
      <polygon class="cls-1" points="116.09 108.9 117.44 111.22 114.74 111.22 116.09 108.9"/>
      <polygon class="cls-1" points="108.09 115.04 106.23 118.25 104.36 115.04 108.09 115.04"/>
      <polygon class="cls-1" points="101.29 116.43 103.48 120.19 99.11 120.19 101.29 116.43"/>
      <polygon class="cls-1" points="94.07 123.09 91.43 127.63 88.79 123.09 94.07 123.09"/>
      <polygon class="cls-1" points="86.5 124.16 89.36 129.07 83.65 129.07 86.5 124.16"/>
      <polygon class="cls-1" points="79.8 131.28 76.64 136.73 73.48 131.28 79.8 131.28"/>
      <polygon class="cls-1" points="71.71 132.14 75.01 137.83 68.41 137.83 71.71 132.14"/>
      <polygon class="cls-1" points="65.15 139.7 61.85 145.39 58.55 139.7 65.15 139.7"/>
      <polygon class="cls-1" points="56.92 140.63 60.22 146.32 53.62 146.32 56.92 140.63"/>
      <polygon class="cls-1" points="50.36 148.19 47.06 153.88 43.75 148.19 50.36 148.19"/>
      <polygon class="cls-1" points="42.13 149.13 45.43 154.82 38.82 154.82 42.13 149.13"/>
      <polygon class="cls-1" points="35.57 156.69 32.27 162.38 28.96 156.69 35.57 156.69"/>
      <polygon class="cls-1" points="27.33 157.62 30.64 163.31 24.03 163.31 27.33 157.62"/>
      <polygon class="cls-1" points="20.68 165.24 17.47 170.76 14.27 165.24 20.68 165.24"/>
      <polygon class="cls-1" points="12.54 166.48 15.53 171.62 9.56 171.62 12.54 166.48"/>
      <polygon class="cls-1" points="5.32 174.06 2.68 178.6 .04 174.06 5.32 174.06"/>
      <polygon class="cls-1" points="140.79 90.6 140.74 90.68 140.69 90.6 140.79 90.6"/>
      <polygon class="cls-1" points="135.81 93.23 136 93.57 135.62 93.57 135.81 93.23"/>
      <polygon class="cls-1" points="126.64 98.72 125.95 99.91 125.26 98.72 126.64 98.72"/>
      <polygon class="cls-1" points="121.02 100.91 121.93 102.47 120.11 102.47 121.02 100.91"/>
      <polygon class="cls-1" points="112.69 106.74 111.16 109.37 109.63 106.74 112.69 106.74"/>
      <polygon class="cls-1" points="106.23 108.43 107.98 111.45 104.47 111.45 106.23 108.43"/>
      <polygon class="cls-1" points="98.55 114.85 96.36 118.62 94.18 114.85 98.55 114.85"/>
      <polygon class="cls-1" points="91.43 116.05 93.95 120.38 88.92 120.38 91.43 116.05"/>
      <polygon class="cls-1" points="84.42 122.97 81.57 127.88 78.72 122.97 84.42 122.97"/>
      <polygon class="cls-1" points="76.64 123.91 79.71 129.2 73.57 129.2 76.64 123.91"/>
      <polygon class="cls-1" points="70.07 131.21 66.78 136.88 63.49 131.21 70.07 131.21"/>
      <polygon class="cls-1" points="61.85 132.14 65.15 137.83 58.55 137.83 61.85 132.14"/>
      <polygon class="cls-1" points="55.29 139.7 51.99 145.39 48.68 139.7 55.29 139.7"/>
      <polygon class="cls-1" points="47.06 140.63 50.36 146.32 43.75 146.32 47.06 140.63"/>
      <polygon class="cls-1" points="40.5 148.19 37.2 153.88 33.89 148.19 40.5 148.19"/>
      <polygon class="cls-1" points="32.27 149.13 35.57 154.82 28.96 154.82 32.27 149.13"/>
      <polygon class="cls-1" points="25.7 156.69 22.4 162.37 19.11 156.69 25.7 156.69"/>
      <polygon class="cls-1" points="17.47 157.74 20.68 163.25 14.27 163.25 17.47 157.74"/>
      <polygon class="cls-1" points="10.42 165.47 7.61 170.31 4.8 165.47 10.42 165.47"/>
      <polygon class="cls-1" points="2.68 166.88 5.32 171.43 .04 171.43 2.68 166.88"/>
      <polygon class="cls-1" points="131.21 90.43 130.88 91.01 130.55 90.43 131.21 90.43"/>
      <polygon class="cls-1" points="125.95 92.86 126.47 93.75 125.43 93.75 125.95 92.86"/>
      <polygon class="cls-1" points="117.09 98.54 116.09 100.27 115.08 98.54 117.09 98.54"/>
      <polygon class="cls-1" points="111.16 100.44 112.47 102.7 109.84 102.7 111.16 100.44"/>
      <polygon class="cls-1" points="103.12 106.56 101.29 109.71 99.47 106.56 103.12 106.56"/>
      <polygon class="cls-1" points="96.36 108.07 98.43 111.63 94.3 111.63 96.36 108.07"/>
      <polygon class="cls-1" points="89.02 114.67 86.5 118.99 83.99 114.67 89.02 114.67"/>
      <polygon class="cls-1" points="81.57 115.76 84.34 120.53 78.81 120.53 81.57 115.76"/>
      <polygon class="cls-1" points="74.83 122.81 71.71 128.18 68.6 122.81 74.83 122.81"/>
      <polygon class="cls-1" points="66.78 123.7 70.03 129.3 63.53 129.3 66.78 123.7"/>
      <polygon class="cls-1" points="60.22 131.2 56.92 136.89 53.62 131.2 60.22 131.2"/>
      <polygon class="cls-1" points="51.99 132.14 55.29 137.83 48.68 137.83 51.99 132.14"/>
      <polygon class="cls-1" points="45.43 139.7 42.13 145.39 38.82 139.7 45.43 139.7"/>
      <polygon class="cls-1" points="37.2 140.63 40.5 146.32 33.89 146.32 37.2 140.63"/>
      <polygon class="cls-1" points="30.64 148.19 27.33 153.88 24.03 148.19 30.64 148.19"/>
      <polygon class="cls-1" points="22.4 149.14 25.7 154.81 19.11 154.81 22.4 149.14"/>
      <polygon class="cls-1" points="15.53 156.87 12.54 162.01 9.56 156.87 15.53 156.87"/>
      <polygon class="cls-1" points="7.61 158.19 10.42 163.03 4.8 163.03 7.61 158.19"/>
      <polygon class="cls-1" points="135.82 82.12 135.81 82.14 135.8 82.12 135.82 82.12"/>
      <polygon class="cls-1" points="130.88 84.76 131.05 85.06 130.71 85.06 130.88 84.76"/>
      <polygon class="cls-1" points="121.62 90.28 121.02 91.32 120.41 90.28 121.62 90.28"/>
      <polygon class="cls-1" points="116.09 92.52 116.9 93.92 115.27 93.92 116.09 92.52"/>
      <polygon class="cls-1" points="107.65 98.3 106.23 100.75 104.81 98.3 107.65 98.3"/>
      <polygon class="cls-1" points="101.29 100.07 102.93 102.89 99.65 102.89 101.29 100.07"/>
      <polygon class="cls-1" points="93.62 106.36 91.43 110.12 89.25 106.36 93.62 106.36"/>
      <polygon class="cls-1" points="86.5 107.7 88.89 111.82 84.11 111.82 86.5 107.7"/>
      <polygon class="cls-1" points="79.41 114.52 76.64 119.29 73.88 114.52 79.41 114.52"/>
      <polygon class="cls-1" points="71.71 115.51 74.69 120.65 68.73 120.65 71.71 115.51"/>
      <polygon class="cls-1" points="65.05 122.76 61.85 128.28 58.65 122.76 65.05 122.76"/>
      <polygon class="cls-1" points="56.92 123.65 60.21 129.33 53.63 129.33 56.92 123.65"/>
      <polygon class="cls-1" points="50.36 131.2 47.06 136.89 43.75 131.2 50.36 131.2"/>
      <polygon class="cls-1" points="42.13 132.14 45.43 137.83 38.82 137.83 42.13 132.14"/>
      <polygon class="cls-1" points="35.57 139.7 32.27 145.39 28.96 139.7 35.57 139.7"/>
      <polygon class="cls-1" points="27.33 140.63 30.64 146.32 24.03 146.32 27.33 140.63"/>
      <polygon class="cls-1" points="20.63 148.27 17.47 153.72 14.31 148.27 20.63 148.27"/>
      <polygon class="cls-1" points="12.54 149.49 15.53 154.63 9.56 154.63 12.54 149.49"/>
      <polygon class="cls-1" points="5.36 157.04 2.68 161.66 0 157.04 5.36 157.04"/>
      <polygon class="cls-1" points="126.19 81.99 125.95 82.4 125.71 81.99 126.19 81.99"/>
      <polygon class="cls-1" points="121.02 84.49 121.43 85.2 120.61 85.2 121.02 84.49"/>
      <polygon class="cls-1" points="112.13 90.06 111.16 91.74 110.18 90.06 112.13 90.06"/>
      <polygon class="cls-1" points="106.23 92.11 107.4 94.13 105.05 94.13 106.23 92.11"/>
      <polygon class="cls-1" points="98.08 98.13 96.36 101.09 94.65 98.13 98.08 98.13"/>
      <polygon class="cls-1" points="91.43 99.67 93.42 103.09 89.45 103.09 91.43 99.67"/>
      <polygon class="cls-1" points="84.04 106.19 81.57 110.45 79.1 106.19 84.04 106.19"/>
      <polygon class="cls-1" points="76.64 107.41 79.28 111.96 74 111.96 76.64 107.41"/>
      <polygon class="cls-1" points="69.72 114.42 66.78 119.48 63.84 114.42 69.72 114.42"/>
      <polygon class="cls-1" points="61.85 115.36 64.96 120.73 58.73 120.73 61.85 115.36"/>
      <polygon class="cls-1" points="55.24 122.74 51.99 128.33 48.74 122.74 55.24 122.74"/>
      <polygon class="cls-1" points="47.06 123.64 50.36 129.33 43.75 129.33 47.06 123.64"/>
      <polygon class="cls-1" points="40.5 131.2 37.2 136.89 33.89 131.2 40.5 131.2"/>
      <polygon class="cls-1" points="32.27 132.14 35.57 137.83 28.96 137.83 32.27 132.14"/>
      <polygon class="cls-1" points="25.65 139.73 22.4 145.32 19.16 139.73 25.65 139.73"/>
      <polygon class="cls-1" points="17.47 140.8 20.63 146.24 14.31 146.24 17.47 140.8"/>
      <polygon class="cls-1" points="10.42 148.48 7.61 153.32 4.8 148.48 10.42 148.48"/>
      <polygon class="cls-1" points="2.68 149.89 5.32 154.44 .04 154.44 2.68 149.89"/>
      <polygon class="cls-1" points="125.95 76.36 126.04 76.52 125.85 76.52 125.95 76.36"/>
      <polygon class="cls-1" points="116.58 81.85 116.09 82.69 115.6 81.85 116.58 81.85"/>
      <polygon class="cls-1" points="111.16 84.1 111.91 85.39 110.41 85.39 111.16 84.1"/>
      <polygon class="cls-1" points="102.54 89.91 101.29 92.05 100.05 89.91 102.54 89.91"/>
      <polygon class="cls-1" points="96.36 91.78 97.82 94.29 94.91 94.29 96.36 91.78"/>
      <polygon class="cls-1" points="88.57 97.93 86.5 101.49 84.44 97.93 88.57 97.93"/>
      <polygon class="cls-1" points="81.57 99.35 83.84 103.25 79.31 103.25 81.57 99.35"/>
      <polygon class="cls-1" points="74.43 106.05 71.71 110.74 68.99 106.05 74.43 106.05"/>
      <polygon class="cls-1" points="66.78 107.17 69.63 112.08 63.93 112.08 66.78 107.17"/>
      <polygon class="cls-1" points="59.95 114.37 56.92 119.58 53.89 114.37 59.95 114.37"/>
      <polygon class="cls-1" points="51.99 115.31 55.15 120.75 48.83 120.75 51.99 115.31"/>
      <polygon class="cls-1" points="45.37 122.74 42.13 128.33 38.88 122.74 45.37 122.74"/>
      <polygon class="cls-1" points="37.2 123.64 40.5 129.33 33.89 129.33 37.2 123.64"/>
      <polygon class="cls-1" points="30.58 131.23 27.33 136.83 24.09 131.23 30.58 131.23"/>
      <polygon class="cls-1" points="22.4 132.25 25.61 137.77 19.2 137.77 22.4 132.25"/>
      <polygon class="cls-1" points="15.48 139.91 12.54 144.97 9.6 139.91 15.48 139.91"/>
      <polygon class="cls-1" points="7.61 141.2 10.42 146.04 4.8 146.04 7.61 141.2"/>
      <polygon class="cls-1" points="121.15 73.56 121.02 73.79 120.88 73.56 121.15 73.56"/>
      <polygon class="cls-1" points="116.09 76.14 116.37 76.63 115.8 76.63 116.09 76.14"/>
      <polygon class="cls-1" points="107.04 81.66 106.23 83.06 105.41 81.66 107.04 81.66"/>
      <polygon class="cls-1" points="101.29 83.81 102.3 85.54 100.29 85.54 101.29 83.81"/>
      <polygon class="cls-1" points="93.04 89.7 91.43 92.46 89.83 89.7 93.04 89.7"/>
      <polygon class="cls-1" points="86.5 91.35 88.33 94.51 84.67 94.51 86.5 91.35"/>
      <polygon class="cls-1" points="78.95 97.79 76.64 101.77 74.34 97.79 78.95 97.79"/>
      <polygon class="cls-1" points="71.71 99.06 74.22 103.39 69.2 103.39 71.71 99.06"/>
      <polygon class="cls-1" points="64.7 105.98 61.85 110.89 59 105.98 64.7 105.98"/>
      <polygon class="cls-1" points="56.92 107.07 59.86 112.13 53.98 112.13 56.92 107.07"/>
      <polygon class="cls-1" points="50.17 114.32 47.06 119.69 43.94 114.32 50.17 114.32"/>
      <polygon class="cls-1" points="42.13 115.26 45.33 120.78 38.92 120.78 42.13 115.26"/>
      <polygon class="cls-1" points="35.51 122.74 32.27 128.33 29.02 122.74 35.51 122.74"/>
      <polygon class="cls-1" points="27.33 123.76 30.54 129.27 24.13 129.27 27.33 123.76"/>
      <polygon class="cls-1" points="20.54 131.34 17.47 136.63 14.4 131.34 20.54 131.34"/>
      <polygon class="cls-1" points="12.54 132.55 15.48 137.62 9.6 137.62 12.54 132.55"/>
      <polygon class="cls-1" points="5.32 140.08 2.68 144.62 .04 140.08 5.32 140.08"/>
      <polygon class="cls-1" points="121.02 67.96 121.03 67.97 121.01 67.97 121.02 67.96"/>
      <polygon class="cls-1" points="111.57 73.4 111.16 74.1 110.75 73.4 111.57 73.4"/>
      <polygon class="cls-1" points="106.23 75.81 106.8 76.79 105.65 76.79 106.23 75.81"/>
      <polygon class="cls-1" points="97.44 81.51 96.36 83.36 95.29 81.51 97.44 81.51"/>
      <polygon class="cls-1" points="91.43 83.41 92.78 85.73 90.09 85.73 91.43 83.41"/>
      <polygon class="cls-1" points="83.44 89.55 81.57 92.77 79.7 89.55 83.44 89.55"/>
      <polygon class="cls-1" points="76.64 91.08 78.71 94.64 74.58 94.64 76.64 91.08"/>
      <polygon class="cls-1" points="69.29 97.68 66.78 102 64.27 97.68 69.29 97.68"/>
      <polygon class="cls-1" points="61.85 98.87 64.53 103.49 59.17 103.49 61.85 98.87"/>
      <polygon class="cls-1" points="54.93 105.93 51.99 110.99 49.05 105.93 54.93 105.93"/>
      <polygon class="cls-1" points="47.06 106.97 50.08 112.18 44.03 112.18 47.06 106.97"/>
      <polygon class="cls-1" points="40.31 114.32 37.2 119.69 34.08 114.32 40.31 114.32"/>
      <polygon class="cls-1" points="32.27 115.31 35.42 120.75 29.11 120.75 32.27 115.31"/>
      <polygon class="cls-1" points="25.52 122.81 22.4 128.18 19.29 122.81 25.52 122.81"/>
      <polygon class="cls-1" points="17.47 123.96 20.5 129.17 14.45 129.17 17.47 123.96"/>
      <polygon class="cls-1" points="10.38 131.51 7.61 136.28 4.85 131.51 10.38 131.51"/>
      <polygon class="cls-1" points="2.68 132.95 5.28 137.42 .08 137.42 2.68 132.95"/>
      <polygon class="cls-1" points="116.12 65.12 116.09 65.17 116.06 65.12 116.12 65.12"/>
      <polygon class="cls-1" points="111.16 67.72 111.37 68.09 110.94 68.09 111.16 67.72"/>
      <polygon class="cls-1" points="101.93 73.27 101.29 74.36 100.66 73.27 101.93 73.27"/>
      <polygon class="cls-1" points="96.36 75.5 97.21 76.95 95.52 76.95 96.36 75.5"/>
      <polygon class="cls-1" points="87.92 81.31 86.5 83.76 85.08 81.31 87.92 81.31"/>
      <polygon class="cls-1" points="81.57 83.08 83.21 85.9 79.93 85.9 81.57 83.08"/>
      <polygon class="cls-1" points="73.85 89.39 71.71 93.09 69.57 89.39 73.85 89.39"/>
      <polygon class="cls-1" points="66.78 90.81 69.09 94.78 64.47 94.78 66.78 90.81"/>
      <polygon class="cls-1" points="59.56 97.6 56.92 102.15 54.28 97.6 59.56 97.6"/>
      <polygon class="cls-1" points="51.99 98.77 54.75 103.54 49.22 103.54 51.99 98.77"/>
      <polygon class="cls-1" points="45.11 105.9 42.13 111.04 39.14 105.9 45.11 105.9"/>
      <polygon class="cls-1" points="37.2 106.92 40.27 112.21 34.13 112.21 37.2 106.92"/>
      <polygon class="cls-1" points="30.4 114.35 27.33 119.63 24.26 114.35 30.4 114.35"/>
      <polygon class="cls-1" points="22.4 115.41 25.47 120.7 19.33 120.7 22.4 115.41"/>
      <polygon class="cls-1" points="15.39 122.97 12.54 127.88 9.69 122.97 15.39 122.97"/>
      <polygon class="cls-1" points="7.61 124.31 10.34 129 4.89 129 7.61 124.31"/>
      <polygon class="cls-1" points="106.46 65 106.23 65.41 105.99 65 106.46 65"/>
      <polygon class="cls-1" points="101.29 67.5 101.7 68.21 100.88 68.21 101.29 67.5"/>
      <polygon class="cls-1" points="92.37 73.09 91.43 74.71 90.49 73.09 92.37 73.09"/>
      <polygon class="cls-1" points="86.5 75.12 87.68 77.14 85.33 77.14 86.5 75.12"/>
      <polygon class="cls-1" points="78.32 81.16 76.64 84.06 74.96 81.16 78.32 81.16"/>
      <polygon class="cls-1" points="71.71 82.77 73.62 86.06 69.8 86.06 71.71 82.77"/>
      <polygon class="cls-1" points="64.2 89.28 61.85 93.32 59.5 89.28 64.2 89.28"/>
      <polygon class="cls-1" points="56.92 90.62 59.39 94.87 54.45 94.87 56.92 90.62"/>
      <polygon class="cls-1" points="49.82 97.53 47.06 102.3 44.29 97.53 49.82 97.53"/>
      <polygon class="cls-1" points="42.13 98.67 44.98 103.59 39.27 103.59 42.13 98.67"/>
      <polygon class="cls-1" points="35.29 105.88 32.27 111.09 29.24 105.88 35.29 105.88"/>
      <polygon class="cls-1" points="27.33 107.02 30.32 112.16 24.35 112.16 27.33 107.02"/>
      <polygon class="cls-1" points="20.37 114.45 17.47 119.43 14.58 114.45 20.37 114.45"/>
      <polygon class="cls-1" points="12.54 115.71 15.35 120.55 9.73 120.55 12.54 115.71"/>
      <polygon class="cls-1" points="5.24 123.14 2.68 127.54 .13 123.14 5.24 123.14"/>
      <polygon class="cls-1" points="106.23 59.39 106.3 59.52 106.15 59.52 106.23 59.39"/>
      <polygon class="cls-1" points="96.8 64.89 96.36 65.64 95.93 64.89 96.8 64.89"/>
      <polygon class="cls-1" points="91.43 67.18 92.12 68.37 90.74 68.37 91.43 67.18"/>
      <polygon class="cls-1" points="82.78 72.94 81.57 75.02 80.36 72.94 82.78 72.94"/>
      <polygon class="cls-1" points="76.64 74.83 78.06 77.28 75.22 77.28 76.64 74.83"/>
      <polygon class="cls-1" points="68.73 81.01 66.78 84.36 64.83 81.01 68.73 81.01"/>
      <polygon class="cls-1" points="61.85 82.54 63.95 86.17 59.75 86.17 61.85 82.54"/>
      <polygon class="cls-1" points="54.46 89.2 51.99 93.46 49.52 89.2 54.46 89.2"/>
      <polygon class="cls-1" points="47.06 90.47 49.65 94.95 44.46 94.95 47.06 90.47"/>
      <polygon class="cls-1" points="40.05 97.48 37.2 102.39 34.34 97.48 40.05 97.48"/>
      <polygon class="cls-1" points="32.27 98.62 35.16 103.61 29.37 103.61 32.27 98.62"/>
      <polygon class="cls-1" points="25.3 105.95 22.4 110.94 19.51 105.95 25.3 105.95"/>
      <polygon class="cls-1" points="17.47 107.17 20.33 112.08 14.62 112.08 17.47 107.17"/>
      <polygon class="cls-1" points="10.25 114.59 7.61 119.14 4.97 114.59 10.25 114.59"/>
      <polygon class="cls-1" points="2.68 116.05 5.19 120.38 .17 120.38 2.68 116.05"/>
      <polygon class="cls-1" points="101.39 56.59 101.29 56.75 101.2 56.59 101.39 56.59"/>
      <polygon class="cls-1" points="96.36 59.2 96.6 59.61 96.13 59.61 96.36 59.2"/>
      <polygon class="cls-1" points="87.25 64.71 86.5 66 85.75 64.71 87.25 64.71"/>
      <polygon class="cls-1" points="81.57 66.89 82.51 68.51 80.63 68.51 81.57 66.89"/>
      <polygon class="cls-1" points="73.2 72.78 71.71 75.35 70.22 72.78 73.2 72.78"/>
      <polygon class="cls-1" points="66.78 74.54 68.46 77.43 65.1 77.43 66.78 74.54"/>
      <polygon class="cls-1" points="59.02 80.92 56.92 84.55 54.81 80.92 59.02 80.92"/>
      <polygon class="cls-1" points="51.99 82.31 54.29 86.28 49.68 86.28 51.99 82.31"/>
      <polygon class="cls-1" points="44.72 89.13 42.13 93.61 39.53 89.13 44.72 89.13"/>
      <polygon class="cls-1" points="37.2 90.38 39.88 94.99 34.51 94.99 37.2 90.38"/>
      <polygon class="cls-1" points="30.14 97.51 27.33 102.35 24.53 97.51 30.14 97.51"/>
      <polygon class="cls-1" points="22.4 98.72 25.21 103.56 19.59 103.56 22.4 98.72"/>
      <polygon class="cls-1" points="15.22 106.07 12.54 110.69 9.86 106.07 15.22 106.07"/>
      <polygon class="cls-1" points="7.61 107.46 10.21 111.94 5.02 111.94 7.61 107.46"/>
      <polygon class="cls-1" points="101.29 50.96 101.31 50.99 101.28 50.99 101.29 50.96"/>
      <polygon class="cls-1" points="91.74 56.47 91.43 57 91.12 56.47 91.74 56.47"/>
      <polygon class="cls-1" points="86.5 58.91 86.99 59.76 86.01 59.76 86.5 58.91"/>
      <polygon class="cls-1" points="77.65 64.56 76.64 66.29 75.64 64.56 77.65 64.56"/>
      <polygon class="cls-1" points="71.71 66.54 72.95 68.68 70.47 68.68 71.71 66.54"/>
      <polygon class="cls-1" points="63.56 72.65 61.85 75.6 60.13 72.65 63.56 72.65"/>
      <polygon class="cls-1" points="56.92 74.32 58.79 77.54 55.05 77.54 56.92 74.32"/>
      <polygon class="cls-1" points="49.36 80.8 47.06 84.78 44.75 80.8 49.36 80.8"/>
      <polygon class="cls-1" points="42.13 82.17 44.56 86.36 39.7 86.36 42.13 82.17"/>
      <polygon class="cls-1" points="34.95 89.08 32.27 93.7 29.58 89.08 34.95 89.08"/>
      <polygon class="cls-1" points="27.33 90.38 30.02 94.99 24.65 94.99 27.33 90.38"/>
      <polygon class="cls-1" points="20.2 97.55 17.47 102.25 14.75 97.55 20.2 97.55"/>
      <polygon class="cls-1" points="12.54 98.97 15.14 103.44 9.95 103.44 12.54 98.97"/>
      <polygon class="cls-1" points="5.11 106.22 2.68 110.4 .25 106.22 5.11 106.22"/>
      <polygon class="cls-1" points="96.36 48.15 96.36 48.15 96.36 48.15 96.36 48.15"/>
      <polygon class="cls-1" points="91.43 50.76 91.63 51.09 91.24 51.09 91.43 50.76"/>
      <polygon class="cls-1" points="82.12 56.33 81.57 57.27 81.03 56.33 82.12 56.33"/>
      <polygon class="cls-1" points="76.64 58.65 77.36 59.89 75.92 59.89 76.64 58.65"/>
      <polygon class="cls-1" points="68.06 64.4 66.78 66.61 65.5 64.4 68.06 64.4"/>
      <polygon class="cls-1" points="61.85 66.3 63.31 68.81 60.39 68.81 61.85 66.3"/>
      <polygon class="cls-1" points="53.93 72.52 51.99 75.87 50.04 72.52 53.93 72.52"/>
      <polygon class="cls-1" points="47.06 74.09 49.12 77.65 44.99 77.65 47.06 74.09"/>
      <polygon class="cls-1" points="39.63 80.73 37.2 84.92 34.77 80.73 39.63 80.73"/>
      <polygon class="cls-1" points="32.27 82.07 34.78 86.4 29.75 86.4 32.27 82.07"/>
      <polygon class="cls-1" points="25.04 89.11 22.4 93.65 19.77 89.11 25.04 89.11"/>
      <polygon class="cls-1" points="17.47 90.47 20.07 94.95 14.88 94.95 17.47 90.47"/>
      <polygon class="cls-1" points="10.08 97.7 7.61 101.96 5.14 97.7 10.08 97.7"/>
      <polygon class="cls-1" points="2.68 99.25 5.03 103.3 .33 103.3 2.68 99.25"/>
      <polygon class="cls-1" points="86.66 48.06 86.5 48.32 86.35 48.06 86.66 48.06"/>
      <polygon class="cls-1" points="81.57 50.54 81.96 51.2 81.19 51.2 81.57 50.54"/>
      <polygon class="cls-1" points="72.52 56.18 71.71 57.58 70.9 56.18 72.52 56.18"/>
      <polygon class="cls-1" points="66.78 58.32 67.79 60.05 65.77 60.05 66.78 58.32"/>
      <polygon class="cls-1" points="58.37 64.3 56.92 66.81 55.46 64.3 58.37 64.3"/>
      <polygon class="cls-1" points="51.99 66.04 53.67 68.93 50.31 68.93 51.99 66.04"/>
      <polygon class="cls-1" points="44.23 72.42 42.13 76.05 40.02 72.42 44.23 72.42"/>
      <polygon class="cls-1" points="37.2 73.91 39.42 77.74 34.97 77.74 37.2 73.91"/>
      <polygon class="cls-1" points="29.81 80.71 27.33 84.97 24.86 80.71 29.81 80.71"/>
      <polygon class="cls-1" points="22.4 82.12 24.87 86.38 19.93 86.38 22.4 82.12"/>
      <polygon class="cls-1" points="14.97 89.23 12.54 93.41 10.11 89.23 14.97 89.23"/>
      <polygon class="cls-1" points="7.61 90.71 10 94.83 5.22 94.83 7.61 90.71"/>
      <polygon class="cls-1" points="86.5 42.41 86.56 42.52 86.44 42.52 86.5 42.41"/>
      <polygon class="cls-1" points="77 47.94 76.64 48.56 76.28 47.94 77 47.94"/>
      <polygon class="cls-1" points="71.71 50.22 72.37 51.36 71.05 51.36 71.71 50.22"/>
      <polygon class="cls-1" points="62.89 56.05 61.85 57.84 60.81 56.05 62.89 56.05"/>
      <polygon class="cls-1" points="56.92 58.09 58.13 60.17 55.71 60.17 56.92 58.09"/>
      <polygon class="cls-1" points="48.77 64.15 47.06 67.11 45.34 64.15 48.77 64.15"/>
      <polygon class="cls-1" points="42.13 65.82 43.99 69.04 40.26 69.04 42.13 65.82"/>
      <polygon class="cls-1" points="34.49 72.36 32.27 76.19 30.04 72.36 34.49 72.36"/>
      <polygon class="cls-1" points="27.33 73.82 29.64 77.79 25.03 77.79 27.33 73.82"/>
      <polygon class="cls-1" points="19.86 80.76 17.47 84.87 15.09 80.76 19.86 80.76"/>
      <polygon class="cls-1" points="12.54 82.26 14.89 86.31 10.2 86.31 12.54 82.26"/>
      <polygon class="cls-1" points="4.91 89.35 2.68 93.18 .46 89.35 4.91 89.35"/>
      <polygon class="cls-1" points="81.6 39.63 81.57 39.69 81.54 39.63 81.6 39.63"/>
      <polygon class="cls-1" points="76.64 42.24 76.86 42.61 76.43 42.61 76.64 42.24"/>
      <polygon class="cls-1" points="67.38 47.8 66.78 48.84 66.18 47.8 67.38 47.8"/>
      <polygon class="cls-1" points="61.85 49.97 62.73 51.48 60.97 51.48 61.85 49.97"/>
      <polygon class="cls-1" points="53.27 55.91 51.99 58.11 50.71 55.91 53.27 55.91"/>
      <polygon class="cls-1" points="47.06 57.8 48.51 60.31 45.6 60.31 47.06 57.8"/>
      <polygon class="cls-1" points="39.06 64.07 37.2 67.28 35.33 64.07 39.06 64.07"/>
      <polygon class="cls-1" points="32.27 65.64 34.29 69.13 30.24 69.13 32.27 65.64"/>
      <polygon class="cls-1" points="24.63 72.36 22.4 76.19 20.18 72.36 24.63 72.36"/>
      <polygon class="cls-1" points="17.47 73.86 19.74 77.77 15.21 77.77 17.47 73.86"/>
      <polygon class="cls-1" points="9.84 80.85 7.61 84.68 5.39 80.85 9.84 80.85"/>
      <polygon class="cls-1" points="2.68 82.5 4.83 86.19 .54 86.19 2.68 82.5"/>
      <polygon class="cls-1" points="71.93 39.53 71.71 39.9 71.49 39.53 71.93 39.53"/>
      <polygon class="cls-1" points="66.78 41.98 67.22 42.74 66.34 42.74 66.78 41.98"/>
      <polygon class="cls-1" points="57.73 47.68 56.92 49.08 56.11 47.68 57.73 47.68"/>
      <polygon class="cls-1" points="51.99 49.71 53.09 51.61 50.88 51.61 51.99 49.71"/>
      <polygon class="cls-1" points="43.62 55.79 42.13 58.36 40.63 55.79 43.62 55.79"/>
      <polygon class="cls-1" points="37.2 57.59 38.84 60.42 35.56 60.42 37.2 57.59"/>
      <polygon class="cls-1" points="29.32 64 27.33 67.42 25.35 64 29.32 64"/>
      <polygon class="cls-1" points="22.4 65.6 24.47 69.16 20.34 69.16 22.4 65.6"/>
      <polygon class="cls-1" points="14.65 72.42 12.54 76.05 10.44 72.42 14.65 72.42"/>
      <polygon class="cls-1" points="7.61 74.09 9.68 77.65 5.55 77.65 7.61 74.09"/>
      <polygon class="cls-1" points="71.71 33.86 71.82 34.06 71.6 34.06 71.71 33.86"/>
      <polygon class="cls-1" points="62.23 39.43 61.85 40.09 61.47 39.43 62.23 39.43"/>
      <polygon class="cls-1" points="56.92 41.76 57.55 42.85 56.29 42.85 56.92 41.76"/>
      <polygon class="cls-1" points="48.1 47.55 47.06 49.34 46.02 47.55 48.1 47.55"/>
      <polygon class="cls-1" points="42.13 49.47 43.44 51.73 40.81 51.73 42.13 49.47"/>
      <polygon class="cls-1" points="33.91 55.7 32.27 58.53 30.63 55.7 33.91 55.7"/>
      <polygon class="cls-1" points="27.33 57.46 29.09 60.48 25.58 60.48 27.33 57.46"/>
      <polygon class="cls-1" points="19.46 64 17.47 67.42 15.49 64 19.46 64"/>
      <polygon class="cls-1" points="12.54 65.73 14.49 69.09 10.6 69.09 12.54 65.73"/>
      <polygon class="cls-1" points="4.63 72.52 2.68 75.87 .73 72.52 4.63 72.52"/>
      <polygon class="cls-1" points="66.86 31.11 66.78 31.25 66.7 31.11 66.86 31.11"/>
      <polygon class="cls-1" points="61.85 33.69 62.11 34.14 61.59 34.14 61.85 33.69"/>
      <polygon class="cls-1" points="52.62 39.29 51.99 40.38 51.36 39.29 52.62 39.29"/>
      <polygon class="cls-1" points="47.06 41.48 47.93 42.99 46.18 42.99 47.06 41.48"/>
      <polygon class="cls-1" points="38.44 47.43 37.2 49.58 35.95 47.43 38.44 47.43"/>
      <polygon class="cls-1" points="32.27 49.27 33.76 51.84 30.77 51.84 32.27 49.27"/>
      <polygon class="cls-1" points="24.12 55.66 22.4 58.61 20.69 55.66 24.12 55.66"/>
      <polygon class="cls-1" points="17.47 57.42 19.26 60.5 15.68 60.5 17.47 57.42"/>
      <polygon class="cls-1" points="9.44 64.09 7.61 67.24 5.78 64.09 9.44 64.09"/>
      <polygon class="cls-1" points="2.68 65.91 4.47 69 .89 69 2.68 65.91"/>
      <polygon class="cls-1" points="66.78 25.49 66.78 25.5 66.78 25.5 66.78 25.49"/>
      <polygon class="cls-1" points="57.13 31.03 56.92 31.41 56.7 31.03 57.13 31.03"/>
      <polygon class="cls-1" points="51.99 33.43 52.48 34.27 51.5 34.27 51.99 33.43"/>
      <polygon class="cls-1" points="42.97 39.17 42.13 40.62 41.28 39.17 42.97 39.17"/>
      <polygon class="cls-1" points="37.2 41.25 38.27 43.1 36.12 43.1 37.2 41.25"/>
      <polygon class="cls-1" points="28.72 47.35 27.33 49.74 25.95 47.35 28.72 47.35"/>
      <polygon class="cls-1" points="22.4 49.18 23.97 51.88 20.84 51.88 22.4 49.18"/>
      <polygon class="cls-1" points="14.22 55.68 12.54 58.57 10.86 55.68 14.22 55.68"/>
      <polygon class="cls-1" points="7.61 57.55 9.29 60.44 5.93 60.44 7.61 57.55"/>
      <polygon class="cls-1" points="61.86 22.66 61.85 22.67 61.84 22.66 61.86 22.66"/>
      <polygon class="cls-1" points="56.92 25.36 57.03 25.56 56.8 25.56 56.92 25.36"/>
      <polygon class="cls-1" points="47.49 30.91 47.06 31.66 46.62 30.91 47.49 30.91"/>
      <polygon class="cls-1" points="42.13 33.2 42.82 34.39 41.44 34.39 42.13 33.2"/>
      <polygon class="cls-1" points="33.3 39.06 32.27 40.85 31.23 39.06 33.3 39.06"/>
      <polygon class="cls-1" points="27.33 41.06 28.58 43.2 26.09 43.2 27.33 41.06"/>
      <polygon class="cls-1" points="18.93 47.31 17.47 49.82 16.02 47.31 18.93 47.31"/>
      <polygon class="cls-1" points="12.54 49.18 14.11 51.88 10.98 51.88 12.54 49.18"/>
      <polygon class="cls-1" points="4.25 55.74 2.68 58.44 1.12 55.74 4.25 55.74"/>
      <polygon class="cls-1" points="52.14 22.58 51.99 22.84 51.84 22.58 52.14 22.58"/>
      <polygon class="cls-1" points="47.06 25.14 47.37 25.67 46.75 25.67 47.06 25.14"/>
      <polygon class="cls-1" points="37.8 30.81 37.2 31.85 36.59 30.81 37.8 30.81"/>
      <polygon class="cls-1" points="32.27 32.98 33.14 34.49 31.39 34.49 32.27 32.98"/>
      <polygon class="cls-1" points="23.54 39 22.4 40.96 21.26 39 23.54 39"/>
      <polygon class="cls-1" points="17.47 40.98 18.79 43.24 16.16 43.24 17.47 40.98"/>
      <polygon class="cls-1" points="9 47.35 7.61 49.74 6.23 47.35 9 47.35"/>
      <polygon class="cls-1" points="2.68 49.31 4.14 51.82 1.23 51.82 2.68 49.31"/>
      <polygon class="cls-1" points="51.99 16.98 52.01 17.01 51.97 17.01 51.99 16.98"/>
      <polygon class="cls-1" points="42.44 22.49 42.13 23.02 41.82 22.49 42.44 22.49"/>
      <polygon class="cls-1" points="37.2 24.96 37.66 25.76 36.73 25.76 37.2 24.96"/>
      <polygon class="cls-1" points="28.12 30.71 27.33 32.06 26.55 30.71 28.12 30.71"/>
      <polygon class="cls-1" points="22.4 32.87 23.38 34.55 21.43 34.55 22.4 32.87"/>
      <polygon class="cls-1" points="13.68 39 12.54 40.96 11.4 39 13.68 39"/>
      <polygon class="cls-1" points="7.61 41.06 8.85 43.2 6.37 43.2 7.61 41.06"/>
      <polygon class="cls-1" points="47.09 14.15 47.06 14.2 47.03 14.15 47.09 14.15"/>
      <polygon class="cls-1" points="42.13 16.85 42.26 17.08 41.99 17.08 42.13 16.85"/>
      <polygon class="cls-1" points="32.76 22.38 32.27 23.23 31.78 22.38 32.76 22.38"/>
      <polygon class="cls-1" points="27.33 24.77 27.97 25.86 26.7 25.86 27.33 24.77"/>
      <polygon class="cls-1" points="18.35 30.66 17.47 32.16 16.6 30.66 18.35 30.66"/>
      <polygon class="cls-1" points="12.54 32.83 13.55 34.57 11.54 34.57 12.54 32.83"/>
      <polygon class="cls-1" points="3.75 39.04 2.68 40.88 1.61 39.04 3.75 39.04"/>
      <polygon class="cls-1" points="37.35 14.08 37.2 14.34 37.04 14.08 37.35 14.08"/>
      <polygon class="cls-1" points="32.27 16.67 32.55 17.16 31.98 17.16 32.27 16.67"/>
      <polygon class="cls-1" points="23.01 22.32 22.4 23.36 21.8 22.32 23.01 22.32"/>
      <polygon class="cls-1" points="17.47 24.67 18.19 25.91 16.75 25.91 17.47 24.67"/>
      <polygon class="cls-1" points="8.46 30.67 7.61 32.13 6.77 30.67 8.46 30.67"/>
      <polygon class="cls-1" points="2.68 32.91 3.62 34.53 1.74 34.53 2.68 32.91"/>
      <polygon class="cls-1" points="37.2 8.49 37.2 8.51 37.19 8.51 37.2 8.49"/>
      <polygon class="cls-1" points="27.62 14 27.33 14.5 27.05 14 27.62 14"/>
      <polygon class="cls-1" points="22.4 16.53 22.81 17.24 21.99 17.24 22.4 16.53"/>
      <polygon class="cls-1" points="13.2 22.28 12.54 23.42 11.88 22.28 13.2 22.28"/>
      <polygon class="cls-1" points="7.61 24.67 8.33 25.91 6.89 25.91 7.61 24.67"/>
      <polygon class="cls-1" points="32.28 5.66 32.27 5.7 32.25 5.66 32.28 5.66"/>
      <polygon class="cls-1" points="27.33 8.37 27.45 8.57 27.22 8.57 27.33 8.37"/>
      <polygon class="cls-1" points="17.83 13.96 17.47 14.58 17.11 13.96 17.83 13.96"/>
      <polygon class="cls-1" points="12.54 16.47 13.01 17.27 12.08 17.27 12.54 16.47"/>
      <polygon class="cls-1" points="3.31 22.3 2.68 23.39 2.05 22.3 3.31 22.3"/>
      <polygon class="cls-1" points="22.5 5.62 22.4 5.78 22.31 5.62 22.5 5.62"/>
      <polygon class="cls-1" points="17.47 8.31 17.65 8.6 17.3 8.6 17.47 8.31"/>
      <polygon class="cls-1" points="8 13.95 7.61 14.61 7.23 13.95 8 13.95"/>
      <polygon class="cls-1" points="2.68 16.5 3.12 17.25 2.24 17.25 2.68 16.5"/>
      <polygon class="cls-1" points="12.68 5.6 12.54 5.83 12.41 5.6 12.68 5.6"/>
      <polygon class="cls-1" points="7.61 8.28 7.81 8.62 7.42 8.62 7.61 8.28"/>
      <polygon class="cls-1" points="12.54 0 12.55 .01 12.53 .01 12.54 0"/>
      <polygon class="cls-1" points="2.81 5.6 2.68 5.83 2.55 5.6 2.81 5.6"/>
      <polygon class="cls-1" points="2.68 0 2.68 .01 2.68 .01 2.68 0"/>
    </g>
  </g>
</svg>